# xmcd
#
# Track frame offsets:
#	150
#	26425
#	44450
#	74025
#	117600
#	143525
#	176613
#	204063
#	223875
#	246125
#	285213
#	315863
#
# Disc length: 4581 seconds
#
# Revision: 3
# Processed by: cddbd v1.5.1PL2 Copyright (c) Steve Scherf et al.
# Submitted via: dBpowerAMP V4.0
#
DISCID=aa11e30c
DTITLE=NewType - X  JAPAN
DYEAR=1900
DGENRE=blues
TTITLE0=RED
TTITLE1=20th CENTURY BOY
TTITLE2=ENDLESS RAIN
TTITLE3=X
TTITLE4=WEEK END
TTITLE5=SILENT JEALOUSY
TTITLE6=SADUSTIC DESIRE
TTITLE7=STANDING SEX
TTITLE8=JOKER
TTITLE9=SAY ANYTHING
TTITLE10=THE EYES OF DUST
TTITLE11=made in HEAVEN
EXTD=
EXTT0=
EXTT1=
EXTT2=
EXTT3=
EXTT4=
EXTT5=
EXTT6=
EXTT7=
EXTT8=
EXTT9=
EXTT10=
EXTT11=
PLAYORDER=
